<svg xmlns="http://www.w3.org/2000/svg" width="720" height="480" viewBox="0 0 720 480">
  <defs>
    <linearGradient id="sky" x1="0" x2="1" y1="0" y2="1">
      <stop offset="0" stop-color="#e5f1ff"/>
      <stop offset="1" stop-color="#f7efe6"/>
    </linearGradient>
    <linearGradient id="can" x1="0" x2="0" y1="0" y2="1">
      <stop offset="0" stop-color="#233b6e"/>
      <stop offset="1" stop-color="#1f6a5a"/>
    </linearGradient>
    <linearGradient id="label" x1="0" x2="1" y1="0" y2="0">
      <stop offset="0" stop-color="#f1b46a"/>
      <stop offset="1" stop-color="#e6c089"/>
    </linearGradient>
  </defs>
  <rect width="720" height="480" rx="36" fill="url(#sky)"/>
  <rect x="70" y="320" width="580" height="28" rx="14" fill="#dfe6ee"/>
  <path d="M110 320 L200 250 L290 320 Z" fill="#c7d2e2"/>
  <path d="M250 320 L340 245 L430 320 Z" fill="#b7c5d8"/>
  <path d="M390 320 L470 260 L550 320 Z" fill="#c7d2e2"/>
  <rect x="130" y="150" width="170" height="210" rx="18" fill="url(#can)"/>
  <rect x="165" y="120" width="100" height="45" rx="10" fill="#1f6a5a"/>
  <rect x="150" y="220" width="130" height="74" rx="12" fill="#ffffff"/>
  <rect x="150" y="220" width="130" height="20" rx="12" fill="#233b6e"/>
  <rect x="150" y="272" width="130" height="10" rx="10" fill="#f1b46a"/>
  <rect x="350" y="130" width="210" height="240" rx="18" fill="#1a2a4a"/>
  <rect x="390" y="100" width="120" height="45" rx="10" fill="#233b6e"/>
  <rect x="380" y="230" width="150" height="74" rx="12" fill="#ffffff"/>
  <rect x="380" y="230" width="150" height="20" rx="12" fill="#233b6e"/>
  <rect x="380" y="282" width="150" height="10" rx="10" fill="#f1b46a"/>
  <circle cx="560" cy="150" r="26" fill="#f1b46a"/>
  <circle cx="595" cy="140" r="14" fill="#f6d3a0"/>
  <circle cx="610" cy="170" r="10" fill="#f1b46a"/>
</svg>
