<svg xmlns="http://www.w3.org/2000/svg" width="720" height="480" viewBox="0 0 720 480">
  <defs>
    <linearGradient id="bg" x1="0" x2="1" y1="0" y2="1">
      <stop offset="0" stop-color="#f6efe8"/>
      <stop offset="1" stop-color="#edf3f8"/>
    </linearGradient>
    <linearGradient id="jotunBlue" x1="0" x2="0" y1="0" y2="1">
      <stop offset="0" stop-color="#233b6e"/>
      <stop offset="1" stop-color="#1a2a4a"/>
    </linearGradient>
    <linearGradient id="accent" x1="0" x2="1" y1="0" y2="0">
      <stop offset="0" stop-color="#f1b46a"/>
      <stop offset="1" stop-color="#f6d3a0"/>
    </linearGradient>
  </defs>
  <rect width="720" height="480" rx="36" fill="url(#bg)"/>
  <rect x="80" y="330" width="560" height="26" rx="13" fill="#e3e9f0"/>
  <rect x="140" y="140" width="190" height="230" rx="20" fill="url(#jotunBlue)"/>
  <rect x="175" y="115" width="120" height="48" rx="10" fill="#1f6a5a"/>
  <rect x="175" y="230" width="120" height="74" rx="12" fill="#ffffff"/>
  <rect x="175" y="230" width="120" height="20" rx="12" fill="#233b6e"/>
  <rect x="175" y="282" width="120" height="10" rx="10" fill="#f1b46a"/>
  <rect x="380" y="155" width="200" height="215" rx="20" fill="#1f6a5a"/>
  <rect x="420" y="125" width="120" height="46" rx="10" fill="#233b6e"/>
  <rect x="415" y="235" width="130" height="74" rx="12" fill="#ffffff"/>
  <rect x="415" y="235" width="130" height="20" rx="12" fill="#233b6e"/>
  <rect x="415" y="287" width="130" height="10" rx="10" fill="#f1b46a"/>
  <path d="M520 110 L570 90 L600 120" fill="none" stroke="#1a2a4a" stroke-width="8" stroke-linecap="round" stroke-linejoin="round"/>
  <circle cx="605" cy="125" r="10" fill="#f1b46a"/>
  <path d="M540 300 L640 300" stroke="#233b6e" stroke-width="8" stroke-linecap="round"/>
  <path d="M540 322 L610 322" stroke="#1a2a4a" stroke-width="8" stroke-linecap="round"/>
</svg>
