<svg xmlns="http://www.w3.org/2000/svg" width="720" height="480" viewBox="0 0 720 480">
  <defs>
    <linearGradient id="bg" x1="0" x2="1" y1="0" y2="1">
      <stop offset="0" stop-color="#f6efe8"/>
      <stop offset="1" stop-color="#e9f0f4"/>
    </linearGradient>
    <linearGradient id="can" x1="0" x2="0" y1="0" y2="1">
      <stop offset="0" stop-color="#1f6a5a"/>
      <stop offset="1" stop-color="#1a2a4a"/>
    </linearGradient>
    <linearGradient id="label" x1="0" x2="1" y1="0" y2="0">
      <stop offset="0" stop-color="#f1b46a"/>
      <stop offset="1" stop-color="#f6d3a0"/>
    </linearGradient>
  </defs>
  <rect width="720" height="480" rx="36" fill="url(#bg)"/>
  <rect x="60" y="320" width="600" height="28" rx="14" fill="#e1e7ee"/>
  <rect x="120" y="160" width="160" height="210" rx="18" fill="url(#can)"/>
  <rect x="160" y="130" width="80" height="45" rx="10" fill="#233b6e"/>
  <rect x="140" y="210" width="120" height="70" rx="12" fill="#ffffff"/>
  <rect x="140" y="210" width="120" height="18" rx="12" fill="#233b6e"/>
  <rect x="140" y="258" width="120" height="10" rx="10" fill="#f1b46a"/>
  <rect x="320" y="130" width="200" height="240" rx="18" fill="#233b6e"/>
  <rect x="360" y="100" width="120" height="45" rx="10" fill="#1f6a5a"/>
  <rect x="350" y="220" width="140" height="74" rx="12" fill="#ffffff"/>
  <rect x="350" y="220" width="140" height="20" rx="12" fill="#233b6e"/>
  <rect x="350" y="272" width="140" height="10" rx="10" fill="#f1b46a"/>
  <rect x="540" y="180" width="90" height="170" rx="16" fill="#1f6a5a"/>
  <rect x="560" y="150" width="50" height="38" rx="8" fill="#1a2a4a"/>
  <circle cx="560" cy="250" r="10" fill="#f1b46a"/>
  <circle cx="585" cy="270" r="8" fill="#f6d3a0"/>
  <circle cx="610" cy="250" r="6" fill="#f1b46a"/>
</svg>
