<svg xmlns="http://www.w3.org/2000/svg" width="720" height="480" viewBox="0 0 720 480">
  <defs>
    <linearGradient id="bg" x1="0" x2="1" y1="0" y2="1">
      <stop offset="0" stop-color="#f2f6fb"/>
      <stop offset="1" stop-color="#f7efe6"/>
    </linearGradient>
    <linearGradient id="jotunBlue" x1="0" x2="0" y1="0" y2="1">
      <stop offset="0" stop-color="#233b6e"/>
      <stop offset="1" stop-color="#1a2a4a"/>
    </linearGradient>
    <linearGradient id="warm" x1="0" x2="1" y1="0" y2="0">
      <stop offset="0" stop-color="#f1b46a"/>
      <stop offset="1" stop-color="#f6d3a0"/>
    </linearGradient>
  </defs>
  <rect width="720" height="480" rx="36" fill="url(#bg)"/>
  <rect x="70" y="330" width="580" height="26" rx="13" fill="#e0e7ef"/>
  <rect x="130" y="150" width="180" height="220" rx="20" fill="url(#jotunBlue)"/>
  <rect x="160" y="125" width="120" height="48" rx="10" fill="#1f6a5a"/>
  <rect x="160" y="220" width="120" height="74" rx="12" fill="#ffffff"/>
  <rect x="160" y="220" width="120" height="20" rx="12" fill="#233b6e"/>
  <rect x="160" y="272" width="120" height="10" rx="10" fill="#f1b46a"/>
  <rect x="360" y="170" width="160" height="200" rx="18" fill="#1f6a5a"/>
  <rect x="390" y="145" width="100" height="44" rx="9" fill="#233b6e"/>
  <rect x="385" y="245" width="110" height="64" rx="11" fill="#ffffff"/>
  <rect x="385" y="245" width="110" height="18" rx="11" fill="#233b6e"/>
  <rect x="385" y="291" width="110" height="9" rx="9" fill="#f1b46a"/>
  <circle cx="570" cy="200" r="34" fill="#f1b46a"/>
  <circle cx="600" cy="230" r="22" fill="#f6d3a0"/>
  <circle cx="560" cy="245" r="14" fill="#f1b46a"/>
  <path d="M520 330 C560 300 620 300 650 330" fill="none" stroke="#1a2a4a" stroke-width="8" stroke-linecap="round"/>
  <path d="M520 330 C560 360 620 360 650 330" fill="none" stroke="#233b6e" stroke-width="8" stroke-linecap="round"/>
</svg>
